<?xml version="1.0" encoding="UTF-8"?>
<svg id="Layer_1" data-name="Layer 1" xmlns="http://www.w3.org/2000/svg" viewBox="0 0 1080 1080">
  <defs>
    <style>
      .cls-1 {
        fill: #fdcf18;
      }

      .cls-2 {
        fill: #326cb2;
      }
    </style>
  </defs>
  <rect class="cls-1" width="1080" height="1080"/>
  <path class="cls-2" d="M918.5,897.74v41.43H161.5v-41.43h59.2v-120.98c0-11.67,9.4-21.12,21.06-21.12h58.87l3.67-76.48c.86-17.45-7.45-33.92-21.71-43.91-38.73-27.01-65.78-89.06-65.78-161.22,0-97.11,48.93-175.75,109.26-175.75s109.32,78.64,109.32,175.75c0,72-26.95,133.89-65.51,161.06-14.37,10.1-22.74,26.79-21.71,44.4l4.48,76.15h56.17c11.61,0,21.06,9.45,21.06,21.12v120.98h10.91v-195.57c0-11.67,9.45-21.06,21.06-21.06h48.07l4.54-157.66c.22-7.94-4.05-15.28-10.91-18.8-32.51-16.42-53.96-52.39-50.82-92.63l20.31-260.82c.22-2.59,1.3-4.86,3.02-6.48,1.67-1.67,3.94-2.65,6.43-2.7,5.35-.05,9.67,4.43,9.67,9.99v246.34c0,11.56,9.18,20.85,20.31,20.52,10.8-.27,19.23-9.78,19.23-20.96v-246.45c0-5.45,4.21-9.94,9.51-9.99h3.19c5.35-.05,9.67,4.43,9.67,9.94v246.93c0,11.56,9.18,20.85,20.31,20.52,10.75-.27,19.23-9.78,19.23-20.96v-247.04c0-5.46,4.21-9.94,9.51-9.99l5.73-.05c5.13-.05,9.34,4.1,9.67,9.4l15.34,263.73c2.48,42.18-22.04,79.29-57.57,93.71-7.83,3.19-12.91,11.13-12.53,19.88l7.02,153.55h53.79c11.61,0,21.06,9.4,21.06,21.06v195.57h11.13v-61.9c0-11.61,9.45-21.06,21.06-21.06h55.74l5.24-70.97c1.94-26.03-8.26-51.42-27.33-68-6.37-5.56-12.69-11.07-19.07-16.64-13.45-11.67-22.25-28.3-24.57-46.56-6-47.2-8.43-119.31,14.74-201.46,22.31-79.12,59.52-135.89,86.25-169.86,3.19-4,9.67-1.78,9.78,3.35,3.73,190.06,7.45,380.07,11.18,570.13h54.87c11.61,0,21.06,9.45,21.06,21.06v61.9h52.82Z"/>
</svg>