<?xml version="1.0" encoding="UTF-8"?>
<svg id="Layer_1" data-name="Layer 1" xmlns="http://www.w3.org/2000/svg" viewBox="0 0 1080 1080">
  <path d="M1022.12,995.67v52.77H57.88v-52.77h75.4v-154.1c0-14.86,11.97-26.9,26.83-26.9h74.99l4.68-97.41c1.1-22.22-9.49-43.2-27.66-55.93-49.33-34.4-83.79-113.44-83.79-205.35,0-123.69,62.33-223.86,139.17-223.86s139.24,100.17,139.24,223.86c0,91.7-34.33,170.54-83.45,205.15-18.3,12.86-28.96,34.12-27.66,56.55l5.71,97h71.55c14.79,0,26.83,12.04,26.83,26.9v154.1h13.9v-249.11c0-14.86,12.04-26.83,26.83-26.83h61.23l5.78-200.81c.28-10.11-5.16-19.47-13.9-23.94-41.41-20.91-68.73-66.73-64.74-117.98l25.87-332.21c.28-3.3,1.65-6.19,3.85-8.26,2.13-2.13,5.02-3.37,8.19-3.44,6.81-.07,12.31,5.64,12.31,12.73v313.78c0,14.72,11.7,26.55,25.87,26.14,13.76-.34,24.49-12.45,24.49-26.69V45.12c0-6.95,5.37-12.66,12.11-12.73h4.06c6.81-.07,12.31,5.64,12.31,12.66v314.53c0,14.72,11.69,26.55,25.87,26.14,13.69-.34,24.49-12.45,24.49-26.69V44.36c0-6.95,5.37-12.66,12.11-12.73l7.29-.07c6.54-.07,11.9,5.23,12.31,11.97l19.54,335.93c3.16,53.73-28.07,100.99-73.34,119.36-9.98,4.06-16.44,14.17-15.96,25.32l8.94,195.58h68.52c14.79,0,26.83,11.97,26.83,26.83v249.11h14.17v-78.84c0-14.79,12.04-26.83,26.83-26.83h71l6.67-90.4c2.48-33.16-10.53-65.49-34.81-86.61-8.12-7.09-16.17-14.1-24.28-21.19-17.13-14.86-28.34-36.05-31.3-59.3-7.64-60.13-10.73-151.97,18.78-256.61,28.41-100.78,75.81-173.09,109.87-216.36,4.06-5.09,12.31-2.27,12.45,4.27,4.75,242.09,9.49,484.11,14.24,726.2h69.9c14.79,0,26.83,12.04,26.83,26.83v78.84h67.28Z"/>
</svg>