<?xml version="1.0" encoding="UTF-8"?>
<svg id="Layer_1" data-name="Layer 1" xmlns="http://www.w3.org/2000/svg" viewBox="0 0 1080 430.65">
  <defs>
    <style>
      .cls-1 {
        fill: #fff;
      }
    </style>
  </defs>
  <g>
    <path class="cls-1" d="M528.38,82.73h67.83v142.58h-50.11v-53.16l-18.53,53.16h-31.57l-18.54-53.16v53.16h-50.11V82.73h67.83l16.7,71.29,16.5-71.29Z"/>
    <path class="cls-1" d="M724.19,177.91c.62,0,1.12.52,1.09,1.15l-2.53,45.22c-.03.58-.51,1.03-1.09,1.03h-115.07V82.73h115.07c.58,0,1.06.45,1.09,1.03l2.53,45.22c.03.62-.46,1.15-1.09,1.15h-67.49v6.99h43.18l-1.63,33.81h-41.55v6.99h67.49Z"/>
    <path class="cls-1" d="M801.93,82.73h50.11v142.58h-50.11l-18.53-53.16v53.16h-50.11V82.73h50.11l18.53,53.16v-53.16Z"/>
    <path class="cls-1" d="M929.44,82.73h49.9v85.88c0,10.66-3.12,21.17-9.37,29.8-12.99,17.94-29.66,26.9-50,26.9s-37-8.97-49.99-26.9c-6.26-8.63-9.38-19.14-9.38-29.8v-85.88h50.11v85.73c2.83,5.77,7.17,7.83,13.03,6.2,3.8-2.17,5.71-5.11,5.71-8.83v-83.11Z"/>
    <path class="cls-1" d="M525.64,323.57c5,3.4,8.62,7.2,10.86,11.41,2.77,4.89,3.98,11.1,3.65,18.64-.33,7.54-2.07,13.62-5.24,18.23-10.27,14.8-31.54,22.2-63.8,22.2-15.54,0-29.43-4-41.68-12.02-.66-.41-1.25-.81-1.78-1.22l-2.77-51.94c1.58,1.22,3.09,2.31,4.54,3.26.4.27.79.48,1.18.61.53.41,1.18.82,1.98,1.22,4.87,2.85,10.14,5.09,15.8,6.72,7.24,2.17,14.81,3.26,22.72,3.26,4.21,0,8.36-.34,12.44-1.02l4.34-.65c.57-3.9-1.12-5.86-5.13-5.86-14.62-.13-28.84-4.69-42.66-13.65-5.53-3.53-9.61-8.21-12.25-14.05-2.5-5.7-3.43-12.49-2.77-20.37.13-.95.2-1.76.2-2.44.79-4.34,2.44-8.35,4.94-12.02,10.27-14.94,31.53-22.41,63.8-22.41,15.41,0,29.3,4.01,41.68,12.02.66.41,1.25.81,1.78,1.22l2.77,51.94c-1.58-1.22-3.1-2.31-4.54-3.26-.4-.27-.79-.47-1.18-.61-.53-.41-1.19-.81-1.98-1.22-4.87-2.85-10.14-5.09-15.8-6.72-7.24-2.17-14.81-3.26-22.71-3.26-4.22,0-8.36.34-12.44,1.02-.53,0-1.09.14-1.68.41-.59.27-1.12.68-1.58,1.22-.46.54-.69,1.09-.69,1.63-.27,1.77.99,2.92,3.75,3.46,7.24,1.22,12.57,2.21,16,2.95,3.42.75,7.97,2.14,13.63,4.18,5.66,2.04,10.53,4.41,14.62,7.13Z"/>
    <path class="cls-1" d="M625.42,340.07c18.73,0,34.85-5.97,48.37-17.92l-2.81,56.42c-6.56,5.16-14.45,9.03-23.68,11.61-9.23,2.58-21.54,3.87-36.93,3.87-11.51,0-22.15-3.19-31.91-9.57-9.77-6.38-17.5-15.04-23.18-25.97-5.69-10.93-8.53-22.85-8.53-35.75s3.08-25.66,9.23-37.07c7.81-14.53,19.5-24.93,35.06-31.2,1.95-.79,3.99-1.37,6.05-1.75,22.3-4.1,41.11,1.8,56.43,17.68,9.36,9.78,15.52,21.66,18.46,35.65l-52.58,14.26c-.4-3.8-1.44-6.96-3.11-9.47-1.67-2.51-3.64-3.77-5.92-3.77-2.54,0-4.72,1.53-6.52,4.58-1.81,3.06-2.71,6.76-2.71,11.1,0,3.8.74,7.2,2.21,10.18,1.07,2.17,2.94,3.84,5.62,4.99,2.67,1.15,5.02,1.8,7.02,1.93,2.01.14,4.68.2,8.03.2h1.41Z"/>
    <path class="cls-1" d="M710.67,261.04c9.91-6.38,20.71-9.57,32.39-9.57s22.47,3.19,32.39,9.57c9.91,6.38,17.72,15.04,23.42,25.97,5.7,10.93,8.55,22.85,8.55,35.75s-2.85,24.82-8.55,35.75c-5.7,10.93-13.51,19.59-23.42,25.97-9.92,6.38-20.71,9.57-32.39,9.57s-22.48-3.19-32.39-9.57c-9.91-6.38-17.76-15.04-23.53-25.97-5.77-10.93-8.66-22.85-8.66-35.75s2.88-24.81,8.66-35.75c5.77-10.93,13.61-19.59,23.53-25.97ZM736.44,333.86c1.83,3.06,4.04,4.58,6.62,4.58s4.75-1.53,6.52-4.58c1.76-3.05,2.65-6.75,2.65-11.1s-.88-8.05-2.65-11.1c-1.77-3.06-3.94-4.58-6.52-4.58s-4.79,1.53-6.62,4.58-2.75,6.76-2.75,11.1.92,8.05,2.75,11.1Z"/>
    <path class="cls-1" d="M932.08,295.06c0,10.87-3.56,20.37-10.69,28.52-7.13,8.15-15.99,12.97-26.58,14.46,4.89.82,9.84,1.22,14.87,1.22,7.74,0,15.21-.95,22.41-2.85l-2.85,55.4c-6.38,1.49-12.9,2.24-19.55,2.24-17.52,0-32.93-4.75-46.24-14.26v14.26s-50.11,0-50.11,0v-142.58h75.37c11.95,0,22.17,4.25,30.65,12.73,8.49,8.49,12.73,18.78,12.73,30.86ZM875.26,304.22c2.58,0,4.79-.88,6.62-2.65,2.64-2.54,3.38-5.94,2.21-10.18-2.17-3.8-5.12-5.71-8.83-5.71h-11.81v18.54h11.81Z"/>
    <path class="cls-1" d="M1057.83,346.65c.62,0,1.12.52,1.09,1.15l-2.53,45.22c-.03.58-.51,1.03-1.09,1.03h-115.07v-142.58h115.07c.58,0,1.06.45,1.09,1.03l2.53,45.22c.03.62-.46,1.15-1.09,1.15h-67.49v6.99h43.18l-1.63,33.81h-41.55v6.99h67.49Z"/>
  </g>
  <path class="cls-1" d="M360.02,375.49v18.55H21.08v-18.55h26.5v-54.17c0-5.22,4.21-9.46,9.43-9.46h26.36l1.64-34.24c.39-7.81-3.34-15.19-9.72-19.66-17.34-12.09-29.45-39.88-29.45-72.18,0-43.48,21.91-78.69,48.92-78.69s48.95,35.21,48.95,78.69c0,32.24-12.07,59.95-29.33,72.11-6.43,4.52-10.18,11.99-9.72,19.88l2.01,34.1h25.15c5.2,0,9.43,4.23,9.43,9.46v54.17h4.88v-87.56c0-5.22,4.23-9.43,9.43-9.43h21.52l2.03-70.59c.1-3.55-1.81-6.84-4.88-8.42-14.56-7.35-24.16-23.46-22.76-41.47l9.09-116.78c.1-1.16.58-2.18,1.35-2.9.75-.75,1.77-1.18,2.88-1.21,2.39-.02,4.33,1.98,4.33,4.47v110.3c0,5.18,4.11,9.33,9.09,9.19,4.84-.12,8.61-4.38,8.61-9.38V41.36c0-2.44,1.89-4.45,4.26-4.47h1.43c2.39-.02,4.33,1.98,4.33,4.45v110.56c0,5.18,4.11,9.33,9.09,9.19,4.81-.12,8.61-4.38,8.61-9.38V41.1c0-2.44,1.89-4.45,4.26-4.47l2.56-.02c2.3-.02,4.18,1.84,4.33,4.21l6.87,118.08c1.11,18.89-9.87,35.5-25.78,41.96-3.51,1.43-5.78,4.98-5.61,8.9l3.14,68.75h24.09c5.2,0,9.43,4.21,9.43,9.43v87.56h4.98v-27.71c0-5.2,4.23-9.43,9.43-9.43h24.96l2.35-31.78c.87-11.66-3.7-23.02-12.24-30.45-2.85-2.49-5.68-4.96-8.54-7.45-6.02-5.22-9.96-12.67-11-20.85-2.68-21.14-3.77-53.42,6.6-90.2,9.99-35.43,26.65-60.84,38.62-76.05,1.43-1.79,4.33-.8,4.38,1.5,1.67,85.1,3.34,170.17,5.01,255.27h24.57c5.2,0,9.43,4.23,9.43,9.43v27.71h23.65Z"/>
</svg>